<svg width="40em" height="100%" viewBox="-50 0 724.79 170.9">
  <defs>
    <style>
      .a,
      .c {
        fill: none;
      }
      .b {
        clip-path: url("#a");
      }
      .c {
        stroke: #1d1d1b;
        stroke-miterlimit: 10;
        stroke-width: 4px;
      }
      .d,
      .e {
        fill: #fff;
      }
      .e {
        stroke: #fff;
        stroke-width: 0.75px;
      }
    </style>
    <clipPath id="a" transform="translate(-0.38 -0.32)"><polyline class="a" points="601.04 -152.08 601.04 282.69 -41.04 282.69 -41.04 -152.08"/></clipPath>
  </defs>
  <title>scholarium_text_3</title>
  <g class="b"><path class="c" d="M.38,219" transform="translate(-0.38 -0.32)"/><path class="c" d="M599.84,219" transform="translate(-0.38 -0.32)"/><path class="c" d="M599.84-111.89" transform="translate(-0.38 -0.32)"/><path
    class="d"
    d="M24.49,81.21c.19-.95,0-.95-.76-.76a30.48,30.48,0,0,1-4.79.38C6.5,80.83.38,69.36.38,58.84c0-18,11.87-35.95,30.42-47.42C42.85,3.77,54.91.32,67.54.32c20.09,0,47.64,13,47.64,50.49,0,23.9-17,47.62-36.93,58.71A43.13,43.13,0,0,1,57,115.06c-22,0-32.52-15.68-32.52-31.93Zm.57-61.38A42.08,42.08,0,0,0,10.72,52.15C10.72,73.57,20.66,78,23.54,78c.76,0,1.14,0,1.33-1.53a41.39,41.39,0,0,1,3.64-13.19c3.63-7.84,8.8-13,14.92-17.4,5.93-4.4,11.86-6.12,13.78-6.12,5.35,0,7.65,4.59,7.65,8,0,6.31-5.74,12-8.42,14-1.34.95-1.34,1.53,0,1.53a50.92,50.92,0,0,1,13,.76c1.53.19,1.92,0,2.3-1.53a78.84,78.84,0,0,1,3.63-10.71,9.54,9.54,0,0,1,3.06-4.39,13.53,13.53,0,0,1,5.17-3.06c1.15-.39,2.1.19,1.15,2.29C83.42,49.28,80.93,58.84,80,62.85c-.38,1.73-.38,2.11.77,2.3a43.51,43.51,0,0,0,5.16.19c4,0,6.7-.57,8.23-1.72,1.53-1,2.29.38,1.15,1.72-1.73,1.92-6.13,5.36-15.12,5.36-1.34,0-1.72.19-1.91,1.34-.38,1.91-.76,6.5-1,9.75-.19,3.06.2,4.4,1.15,4.4a6.06,6.06,0,0,0,1.92-.38c1-.39,1.34.57.57,1.34a23.71,23.71,0,0,1-8.42,6.11c-1.91.76-4.59.19-4.4-6.11a74,74,0,0,1,1.53-14.54c.38-1.53.19-1.91-1-2.1a88.57,88.57,0,0,0-17.6-1.35c-6.89,0-12.44,2.3-14.16,3.83a3.38,3.38,0,0,0-1.54,2.87c-.57,19.31,13,30.79,31,30,3.63,0,14-1.14,22.19-8.6,10.91-10.13,15.69-26.58,15.69-42.07,0-24.48-16.64-47.43-46.11-47.43-14.54,0-25.44,5.16-33.1,12m17,31.74c-2.3,3.06-4.78,8-5.93,16.45-.19,1,.19,1.34,1.53.76,9.18-3.44,16.46-7.26,16.46-17.21a4.62,4.62,0,0,0-5-4.59c-2.3,0-4.78,1.34-7.08,4.59"
    transform="translate(-0.38 -0.32)"/></g><path
    class="e"
    d="M159.43,45.34a27.21,27.21,0,0,1,1.87,9.48,2,2,0,0,1-2.8.35c-2-5.15-5.5-8.54-10.3-8.54-4.56,0-7.49,2.92-7.49,7.14,0,4.79,4.92,7.37,9,9.71,6.2,3.51,11.94,7.49,11.94,15.79,0,8.9-8.19,13.34-16.85,13.34-5.5,0-9.6-1.17-12.52-3.51-.94-2.22-1.64-7.95-1.41-11.82a2,2,0,0,1,2.69-.11c2,6.43,5.74,12,12.41,12,4.21,0,7.84-2.46,7.84-7.49,0-5.38-4.68-8.31-9-10.76-6.79-3.87-11.59-8-11.59-14.4,0-8.54,7-13.33,15.92-13.33C154.05,43.24,158.38,44.41,159.43,45.34Z"
    transform="translate(-0.38 -0.32)"/><path
    class="e"
    d="M208.1,45.22a6.63,6.63,0,0,1,1.76,4.68c0,2.11-1.17,4.33-2.57,4.33a2,2,0,0,1-1.64-.82c-2.58-3.15-6.91-6.2-11.7-6.2-8.19,0-16.15,6.44-16.15,18.84,0,9.13,6.32,20,18.84,20,6.78,0,10.29-3,13-7a1.84,1.84,0,0,1,2.1,1.64c-4,8.66-12.75,11.93-19.54,11.93-6.2,0-11.93-2-16-6s-6.78-9.71-6.78-17.31c0-12.64,8.89-26.09,28.31-26.09A29.2,29.2,0,0,1,208.1,45.22Z"
    transform="translate(-0.38 -0.32)"/><path
    class="e"
    d="M222.26,25c0-6.9-.12-7.6-3.63-9.71l-1.17-.7a1.79,1.79,0,0,1,0-2.34A82.55,82.55,0,0,0,230.1,7.31a1.28,1.28,0,0,1,1.17.71c-.12,3.51-.35,9.36-.35,14.51V47.1c0,1,.12,2,.47,2.22,4.21-3.28,9.82-6.08,15.79-6.08,11.12,0,15.1,6.9,15.1,15.09V77.87c0,8.42.23,9.71,4.44,10.18l3.16.35a2,2,0,0,1-.23,2.92C265.43,91.09,262,91,258,91s-7.73.12-10.89.35a2,2,0,0,1-.23-2.92l2.34-.35c4.33-.7,4.45-1.76,4.45-10.18V61.14c0-7.49-3.63-12.52-11.12-12.52a13.94,13.94,0,0,0-9.12,3.16c-2.11,1.75-2.46,2.34-2.46,6.43V77.87c0,8.42.23,9.59,4.44,10.18l2.46.35c.82.47.59,2.57-.23,2.92-3.51-.23-6.91-.35-11-.35s-7.72.12-11.47.35a2,2,0,0,1-.23-2.92l2.92-.35c4.33-.47,4.45-1.76,4.45-10.18Z"
    transform="translate(-0.38 -0.32)"/><path
    class="e"
    d="M325,67.46c0,14.62-10.06,25.15-24.69,25.15-13.46,0-24-9.48-24-24.1s11.12-25.27,24.93-25.27C314.34,43.24,325,53.06,325,67.46ZM299.83,46.75c-7.72,0-13.45,7.37-13.45,20.24,0,10.64,4.79,22.11,15.09,22.11s13.46-10.76,13.46-19.77C314.93,59.38,311,46.75,299.83,46.75Z"
    transform="translate(-0.38 -0.32)"/><path
    class="e"
    d="M348,77.87c0,8.42.24,9.59,4.45,10.18l2.81.35a2,2,0,0,1-.24,2.92c-3.86-.23-7.25-.35-11.34-.35s-7.73.12-11.24.35a2,2,0,0,1-.23-2.92l2.69-.35c4.33-.59,4.45-1.76,4.45-10.18V25c0-6.9-.12-7.6-3.63-9.71l-1.17-.7a1.77,1.77,0,0,1,0-2.34,82.89,82.89,0,0,0,12.63-4.92,1.31,1.31,0,0,1,1.18.71c-.12,3.51-.36,9.36-.36,14.51Z"
    transform="translate(-0.38 -0.32)"/><path
    class="e"
    d="M385.71,66.75c1.75-.58,2-1.63,2-3.39l.11-5.38c.12-4.33-1.28-10.18-8.54-10.18-3.27,0-7.25,1.64-7.49,5.26-.11,1.88-.23,3.28-1.17,4a12.53,12.53,0,0,1-6.67,2.23,1.48,1.48,0,0,1-1.63-1.64c0-6.09,13.22-14.39,21.76-14.39s12.52,4.91,12.17,13.68l-.7,20.36c-.24,5.39.82,10.18,5.38,10.18a6.71,6.71,0,0,0,2.92-.7c.59-.35,1.17-.82,1.52-.82s.82.7.82,1.52c0,.59-4.09,5.15-9.82,5.15A9.33,9.33,0,0,1,388.75,89c-.47-.7-1.17-1.63-1.87-1.63s-2.23,1.05-4.57,2.34c-2.57,1.4-5.14,2.92-8.42,2.92a12.09,12.09,0,0,1-8.19-2.69,11,11,0,0,1-3.63-8.19c0-4.56,2.23-7.25,9.71-10Zm-7.26,20.6a13.24,13.24,0,0,0,7.14-2.93c1.4-1.4,1.4-3,1.52-5.5l.24-6.9c0-1.29-.47-1.52-1.17-1.52a22,22,0,0,0-4.8,1.17c-6.9,2.34-10.3,4.09-10.3,8.66A7.06,7.06,0,0,0,378.45,87.35Z"
    transform="translate(-0.38 -0.32)"/><path
    class="e"
    d="M416.71,57.39c0-4.56,0-5.15-3.16-7.25l-1.05-.7a1.6,1.6,0,0,1,.12-2.11,91.43,91.43,0,0,0,11.81-5.73c.59.11.94.35.94.82V49.2c0,.59.12.94.35,1.06,4.1-3.4,8.54-7,12.87-7,2.93,0,5.27,1.87,5.27,4.68a5.19,5.19,0,0,1-5,5.38,4.5,4.5,0,0,1-2.58-.82,9.58,9.58,0,0,0-5.15-1.87A5.19,5.19,0,0,0,426.89,53c-1.17,1.63-1.52,5-1.52,9V77.87c0,8.42.23,9.83,4.68,10.18l4.21.35a2,2,0,0,1-.23,2.92c-5.5-.23-8.89-.35-13-.35s-7.72.12-10.76.35A2,2,0,0,1,410,88.4l2.23-.35c4.32-.7,4.44-1.76,4.44-10.18Z"
    transform="translate(-0.38 -0.32)"/><path
    class="e"
    d="M455.55,57.39c0-4.56,0-5.15-3.16-7.25l-1.05-.7a1.6,1.6,0,0,1,.12-2.11,81.23,81.23,0,0,0,12.05-5.73,1.08,1.08,0,0,1,1.17.7c-.23,4.09-.47,9.71-.47,14.51V77.87c0,8.42.24,9.59,4.45,10.18l2.46.35a2,2,0,0,1-.24,2.92c-3.51-.23-6.9-.35-11-.35s-7.72.12-11,.35a2,2,0,0,1-.23-2.92l2.46-.35c4.33-.59,4.44-1.76,4.44-10.18Zm9.71-33.34c0,4.21-2.92,6.08-6.2,6.08a5.75,5.75,0,0,1-6-5.85A6.08,6.08,0,0,1,459.41,18,5.85,5.85,0,0,1,465.26,24.05Z"
    transform="translate(-0.38 -0.32)"/><path
    class="e"
    d="M492.76,73.77c0,8.08,2,13.46,10.88,13.46a15.34,15.34,0,0,0,9.48-3.51c1.52-1.41,2.34-3.16,2.34-6.79V57.74c0-7.6-.82-7.84-4.33-9.24l-1.52-.58a1.6,1.6,0,0,1,.11-2.58c4.68-.12,11.12-.93,13.69-2.1.59.11.94.35,1.06.81-.24,2.23-.35,5.85-.35,10.18V73.89c0,9.24.35,12.75,3.62,12.75a22.24,22.24,0,0,0,4.57-.58c.7.58.81,2.92-.12,3.39-4.56.94-11.35,2.11-15.33,4.33a1.61,1.61,0,0,1-1.4-.82V88.17c0-1.06-.35-1.64-1.06-1.64-3.51,2.22-9.24,6.08-16.14,6.08C488,92.61,484.1,87.46,484.1,78V58.45c0-7.38,0-8.43-3.51-10l-1.4-.58a1.74,1.74,0,0,1,.23-2.58,41.73,41.73,0,0,0,12.52-2.1c.7.11,1.05.35,1.17.81a89.3,89.3,0,0,0-.35,10.18Z"
    transform="translate(-0.38 -0.32)"/><path
    class="e"
    d="M607.54,60.9c0-7.95-3.51-12-10.88-12-4.45,0-8.08,2-9.72,4.1-1.4,1.75-1.75,2.92-1.75,7v17.9c0,8.42.23,9.59,4.45,10.18l2.45.35a2,2,0,0,1-.23,2.92c-3.51-.23-6.9-.35-11-.35s-7.37.12-10.65.35A2,2,0,0,1,570,88.4l2.1-.35c4.33-.7,4.45-1.76,4.45-10.18v-17c0-7.84-3.51-12-10.76-12a12.55,12.55,0,0,0-9.83,4.21c-1.17,1.41-1.76,2.93-1.76,6.67V77.87c0,8.42.24,9.48,4.45,10.18l2.11.35a2,2,0,0,1-.24,2.92c-3.16-.23-6.55-.35-10.65-.35s-7.72.12-11.35.35a2,2,0,0,1-.23-2.92l2.81-.35c4.33-.59,4.45-1.76,4.45-10.18V57.39c0-4.56,0-5.15-3.16-7.25l-1.06-.7a1.6,1.6,0,0,1,.12-2.11c2.69-.94,9.36-4,11.7-5.73a1.37,1.37,0,0,1,1.29.82c-.24,2.69-.24,4.44-.24,5.5a1.23,1.23,0,0,0,1.29,1.28c4.45-3.16,9.95-6,15.56-6,5.85,0,9.13,2.1,12.4,6.9,1.06.23,1.88-.24,2.93-.94,4.68-3.27,10.41-6,15.91-6,9.36,0,13.93,6.43,13.93,14.5V77.87c0,8.42.23,9.59,4.44,10.18l2.81.35a2,2,0,0,1-.23,2.92c-3.87-.23-7.26-.35-11.35-.35s-7.37.12-10.65.35A2,2,0,0,1,601,88.4l2.1-.35c4.33-.7,4.45-1.76,4.45-10.18Z"
    transform="translate(-0.38 -0.32)"/><path
    class="d"
    d="M5.8,142.55a10.25,10.25,0,0,1,5.67,1.3,6.49,6.49,0,0,1-3.33,11.62l7.42,10.43H12.41l-7.1-10.22H4.64V165.9H2.05V142.55ZM4.64,153.37H6.29c3.22,0,5.14-1.54,5.14-4.27a3.63,3.63,0,0,0-1.85-3.43A6.61,6.61,0,0,0,6.22,145H4.64Z"
    transform="translate(-0.38 -0.32)"/><path
    class="d"
    d="M30.51,162.19a8.63,8.63,0,0,1-1.79,2.35,7,7,0,0,1-4.83,1.78c-3.5,0-7.17-2.2-7.17-7.59,0-4.34,2.66-7.71,7-7.71a6.51,6.51,0,0,1,5.5,2.67,9.73,9.73,0,0,1,1.36,5.46H19.31a4.65,4.65,0,0,0,4.62,4.93,4.4,4.4,0,0,0,3-1.05,5.79,5.79,0,0,0,1.51-2ZM28,157.05a4.34,4.34,0,0,0-4.27-3.78,4.42,4.42,0,0,0-4.27,3.78Z"
    transform="translate(-0.38 -0.32)"/><path
    class="d"
    d="M45.59,151.38h2.52V165.9H45.59v-2a6.11,6.11,0,0,1-5,2.45c-3.67,0-7.07-2.59-7.07-7.7s3.36-7.6,7.07-7.6a6,6,0,0,1,5,2.42Zm-9.45,7.24c0,3.12,1.75,5.46,4.76,5.46s4.83-2.55,4.83-5.42c0-3.75-2.59-5.39-4.83-5.39C38.42,153.27,36.14,155.09,36.14,158.62Z"
    transform="translate(-0.38 -0.32)"/><path class="d" d="M55.39,140.38V165.9H52.87V140.38Z" transform="translate(-0.38 -0.32)"/><path class="d" d="M61.41,144.09a1.79,1.79,0,1,1-1.78,1.79A1.8,1.8,0,0,1,61.41,144.09Zm1.26,7.29V165.9H60.15V151.38Z" transform="translate(-0.38 -0.32)"/><path class="d" d="M70,153.69V165.9H67.5V153.69H66v-2.31H67.5v-5.26H70v5.26h2.52v2.31Z" transform="translate(-0.38 -0.32)"/><path
    class="d"
    d="M86.05,151.38h2.52V165.9H86.05v-2a6.11,6.11,0,0,1-5,2.45c-3.67,0-7.07-2.59-7.07-7.7s3.36-7.6,7.07-7.6a6,6,0,0,1,5,2.42Zm-9.45,7.24c0,3.12,1.75,5.46,4.76,5.46s4.83-2.55,4.83-5.42c0-3.75-2.59-5.39-4.83-5.39C78.88,153.27,76.6,155.09,76.6,158.62Zm2.24-13.72a1.75,1.75,0,1,1-1.75,1.75A1.77,1.77,0,0,1,78.84,144.9Zm6.09,0a1.75,1.75,0,1,1-1.75,1.75A1.77,1.77,0,0,1,84.93,144.9Z"
    transform="translate(-0.38 -0.32)"/><path class="d" d="M95.92,153.69V165.9H93.4V153.69H91.86v-2.31H93.4v-5.26h2.52v5.26h2.52v2.31Z" transform="translate(-0.38 -0.32)"/><path
    class="d"
    d="M121.86,162.19a8.63,8.63,0,0,1-1.79,2.35,7,7,0,0,1-4.83,1.78c-3.5,0-7.18-2.2-7.18-7.59,0-4.34,2.66-7.71,7-7.71a6.51,6.51,0,0,1,5.5,2.67,9.73,9.73,0,0,1,1.36,5.46H110.65a4.65,4.65,0,0,0,4.62,4.93,4.41,4.41,0,0,0,3-1.05,5.79,5.79,0,0,0,1.51-2Zm-2.49-5.14a4.34,4.34,0,0,0-4.27-3.78,4.41,4.41,0,0,0-4.27,3.78Z"
    transform="translate(-0.38 -0.32)"/><path class="d" d="M125.81,151.38h2.52V153a4,4,0,0,1,3.29-1.93,5.4,5.4,0,0,1,2.24.6l-1.19,2.28a2.57,2.57,0,0,0-1.47-.49,2.43,2.43,0,0,0-2,.91c-.42.56-.84,1.54-.84,3.92v7.66h-2.52Z" transform="translate(-0.38 -0.32)"/><path class="d" d="M138.69,140.38v16.39l5.32-5.39h3.29l-6.23,6.23,7.35,8.29h-3.29l-5.81-6.61-.63.63v6h-2.52V140.38Z" transform="translate(-0.38 -0.32)"/><path
    class="d"
    d="M163.16,162.19a9.05,9.05,0,0,1-1.79,2.35,7.06,7.06,0,0,1-4.83,1.78c-3.5,0-7.18-2.2-7.18-7.59,0-4.34,2.66-7.71,7-7.71a6.53,6.53,0,0,1,5.5,2.67,9.73,9.73,0,0,1,1.36,5.46H152a4.65,4.65,0,0,0,4.62,4.93,4.43,4.43,0,0,0,3-1.05,5.91,5.91,0,0,0,1.51-2Zm-2.49-5.14a4.35,4.35,0,0,0-4.27-3.78,4.41,4.41,0,0,0-4.27,3.78Z"
    transform="translate(-0.38 -0.32)"/><path
    class="d"
    d="M167.11,151.38h2.52v1.68a5.1,5.1,0,0,1,4.16-2,5,5,0,0,1,4.17,2,6.54,6.54,0,0,1,.84,3.89v9h-2.52V157a4.23,4.23,0,0,0-.67-2.66,2.85,2.85,0,0,0-2.38-1,3.15,3.15,0,0,0-2.55,1.12,6.11,6.11,0,0,0-1.05,3.92v7.59h-2.52Z"
    transform="translate(-0.38 -0.32)"/><path
    class="d"
    d="M183.56,151.38h2.52v1.68a5.1,5.1,0,0,1,4.16-2,5,5,0,0,1,4.17,2,6.54,6.54,0,0,1,.84,3.89v9h-2.52V157a4.23,4.23,0,0,0-.67-2.66,2.85,2.85,0,0,0-2.38-1,3.15,3.15,0,0,0-2.55,1.12,6.11,6.11,0,0,0-1,3.92v7.59h-2.52Z"
    transform="translate(-0.38 -0.32)"/><path
    class="d"
    d="M212.89,162.19a8.63,8.63,0,0,1-1.79,2.35,7,7,0,0,1-4.83,1.78c-3.5,0-7.17-2.2-7.17-7.59,0-4.34,2.66-7.71,7-7.71a6.51,6.51,0,0,1,5.5,2.67,9.73,9.73,0,0,1,1.36,5.46h-11.3a4.65,4.65,0,0,0,4.62,4.93,4.4,4.4,0,0,0,3-1.05,5.79,5.79,0,0,0,1.51-2Zm-2.49-5.14a4.34,4.34,0,0,0-4.27-3.78,4.42,4.42,0,0,0-4.27,3.78Z"
    transform="translate(-0.38 -0.32)"/><path
    class="d"
    d="M216.84,151.38h2.52v1.68a5.12,5.12,0,0,1,4.17-2,4.93,4.93,0,0,1,4.16,2,6.47,6.47,0,0,1,.84,3.89v9H226V157a4.29,4.29,0,0,0-.66-2.66,2.85,2.85,0,0,0-2.38-1,3.17,3.17,0,0,0-2.56,1.12,6.11,6.11,0,0,0-1,3.92v7.59h-2.52Z"
    transform="translate(-0.38 -0.32)"/><path class="d" d="M234.62,162.47l2.31.84-3.53,7.91-1.65-.66Z" transform="translate(-0.38 -0.32)"/><path class="d" d="M251.81,142.55,258,160.06l7.31-18.7,6.93,18.7L279,142.55h2.87l-9.8,24.58-6.86-18.69-7.35,18.69-9-24.58Z" transform="translate(-0.38 -0.32)"/><path
    class="d"
    d="M294,162.19a8.79,8.79,0,0,1-1.78,2.35,7.06,7.06,0,0,1-4.83,1.78c-3.5,0-7.18-2.2-7.18-7.59,0-4.34,2.66-7.71,7-7.71a6.49,6.49,0,0,1,5.49,2.67,9.73,9.73,0,0,1,1.37,5.46H282.78a4.65,4.65,0,0,0,4.62,4.93,4.43,4.43,0,0,0,3-1.05,5.75,5.75,0,0,0,1.5-2Zm-2.48-5.14a4.35,4.35,0,0,0-4.27-3.78,4.41,4.41,0,0,0-4.27,3.78Z"
    transform="translate(-0.38 -0.32)"/><path class="d" d="M297.93,151.38h2.52V153a4.06,4.06,0,0,1,3.3-1.93,5.44,5.44,0,0,1,2.24.6l-1.19,2.28a2.59,2.59,0,0,0-1.47-.49,2.46,2.46,0,0,0-2,.91c-.42.56-.84,1.54-.84,3.92v7.66h-2.52Z" transform="translate(-0.38 -0.32)"/><path class="d" d="M310.88,153.69V165.9h-2.52V153.69h-1.54v-2.31h1.54v-5.26h2.52v5.26h2.52v2.31Z" transform="translate(-0.38 -0.32)"/><path
    class="d"
    d="M328.67,162.19a8.63,8.63,0,0,1-1.79,2.35,7.06,7.06,0,0,1-4.83,1.78c-3.5,0-7.18-2.2-7.18-7.59,0-4.34,2.66-7.71,7-7.71a6.51,6.51,0,0,1,5.5,2.67,9.73,9.73,0,0,1,1.36,5.46H317.46a4.65,4.65,0,0,0,4.62,4.93,4.43,4.43,0,0,0,3-1.05,5.75,5.75,0,0,0,1.5-2Zm-2.49-5.14a4.35,4.35,0,0,0-4.27-3.78,4.41,4.41,0,0,0-4.27,3.78Z"
    transform="translate(-0.38 -0.32)"/><path
    class="d"
    d="M346.76,154.74a2.23,2.23,0,0,0-2-1.47,1.6,1.6,0,0,0-1.75,1.64c0,1.05.7,1.37,2.34,2.07a8.78,8.78,0,0,1,3.64,2.24,3.43,3.43,0,0,1,.77,2.34c0,3.05-2.2,4.76-5,4.76a5.2,5.2,0,0,1-5.08-3.71l2.17-.91a3.29,3.29,0,0,0,2.94,2.38,2.25,2.25,0,0,0,2.38-2.31c0-1.36-1-1.82-2.34-2.41a9.48,9.48,0,0,1-3.54-2.14,3.14,3.14,0,0,1-.66-2.13,3.91,3.91,0,0,1,4.23-4.07,4.2,4.2,0,0,1,4,2.63Z"
    transform="translate(-0.38 -0.32)"/><path class="d" d="M364.47,155.44a5.87,5.87,0,0,0-4.55-2.17,5.41,5.41,0,0,0,0,10.81,6.18,6.18,0,0,0,4.69-2.27v3a7.76,7.76,0,0,1-4.62,1.5,7.65,7.65,0,1,1,0-15.3,7.7,7.7,0,0,1,4.52,1.41Z" transform="translate(-0.38 -0.32)"/><path
    class="d"
    d="M368.42,140.38h2.52v12.68a5.12,5.12,0,0,1,4.17-2,4.93,4.93,0,0,1,4.16,2,6.47,6.47,0,0,1,.84,3.89v9h-2.52V157a4.29,4.29,0,0,0-.66-2.66,2.85,2.85,0,0,0-2.38-1,3.17,3.17,0,0,0-2.56,1.12,6.11,6.11,0,0,0-1.05,3.92v7.59h-2.52Z"
    transform="translate(-0.38 -0.32)"/><path
    class="d"
    d="M396,151.38h2.52V165.9H396v-2a6.11,6.11,0,0,1-5,2.45c-3.67,0-7.07-2.59-7.07-7.7s3.36-7.6,7.07-7.6a6,6,0,0,1,5,2.42Zm-9.45,7.24c0,3.12,1.75,5.46,4.76,5.46s4.83-2.55,4.83-5.42c0-3.75-2.59-5.39-4.83-5.39C388.83,153.27,386.55,155.09,386.55,158.62Z"
    transform="translate(-0.38 -0.32)"/><path
    class="d"
    d="M405.87,153.69V165.9h-2.52V153.69H402v-2.31h1.4V145c0-1.33.11-3,1.4-4.1a4.55,4.55,0,0,1,2.91-.94,5,5,0,0,1,1.78.31v2.45a4.54,4.54,0,0,0-1.64-.31,1.76,1.76,0,0,0-1.61.77,4.29,4.29,0,0,0-.32,2.1v6.06h3.57v2.31Z"
    transform="translate(-0.38 -0.32)"/><path
    class="d"
    d="M414.27,153.69V165.9h-2.52V153.69h-1.4v-2.31h1.4V145c0-1.33.11-3,1.4-4.1a4.55,4.55,0,0,1,2.91-.94,5,5,0,0,1,1.78.31v2.45a4.54,4.54,0,0,0-1.64-.31,1.76,1.76,0,0,0-1.61.77,4.29,4.29,0,0,0-.32,2.1v6.06h3.57v2.31Z"
    transform="translate(-0.38 -0.32)"/><path
    class="d"
    d="M433,162.19a8.79,8.79,0,0,1-1.78,2.35,7.06,7.06,0,0,1-4.83,1.78c-3.5,0-7.18-2.2-7.18-7.59,0-4.34,2.66-7.71,7-7.71a6.49,6.49,0,0,1,5.49,2.67,9.73,9.73,0,0,1,1.37,5.46H421.76a4.65,4.65,0,0,0,4.62,4.93,4.43,4.43,0,0,0,3-1.05,5.75,5.75,0,0,0,1.5-2Zm-2.48-5.14a4.35,4.35,0,0,0-4.27-3.78,4.41,4.41,0,0,0-4.27,3.78Z"
    transform="translate(-0.38 -0.32)"/><path
    class="d"
    d="M436.92,151.38h2.51v1.68a5.14,5.14,0,0,1,4.17-2,5,5,0,0,1,4.17,2,6.54,6.54,0,0,1,.84,3.89v9h-2.52V157a4.23,4.23,0,0,0-.67-2.66,2.85,2.85,0,0,0-2.38-1,3.15,3.15,0,0,0-2.55,1.12,6.06,6.06,0,0,0-1.06,3.92v7.59h-2.51Z"
    transform="translate(-0.38 -0.32)"/><path class="d" d="M454.69,162.47l2.31.84-3.53,7.91-1.65-.66Z" transform="translate(-0.38 -0.32)"/><path
    class="d"
    d="M482.17,147.18a5.68,5.68,0,0,0-1.37-1.76,4.17,4.17,0,0,0-2.62-.8c-2.31,0-3.92,1.44-3.92,3.61a2.45,2.45,0,0,0,.87,2,7.77,7.77,0,0,0,2.45,1.47l2.24,1a11.21,11.21,0,0,1,3.61,2.2,5.63,5.63,0,0,1,1.68,4.24c0,4.3-3.19,7.17-7.39,7.17a6.93,6.93,0,0,1-5.07-1.89,8.38,8.38,0,0,1-2.17-4.13l2.52-.7a5.44,5.44,0,0,0,1.4,3,4.47,4.47,0,0,0,3.36,1.29,4.42,4.42,0,0,0,4.69-4.62,3.49,3.49,0,0,0-1.16-2.73,10,10,0,0,0-2.8-1.61l-2.1-1a10.39,10.39,0,0,1-3.11-1.92,4.86,4.86,0,0,1-1.61-3.82c0-3.61,2.76-6,6.54-6a6.34,6.34,0,0,1,3.75,1.05,7.12,7.12,0,0,1,2.28,2.59Z"
    transform="translate(-0.38 -0.32)"/><path class="d" d="M490.5,144.09a1.79,1.79,0,1,1-1.79,1.79A1.79,1.79,0,0,1,490.5,144.09Zm1.26,7.29V165.9h-2.52V151.38Z" transform="translate(-0.38 -0.32)"/><path
    class="d"
    d="M496.52,151.38H499v1.68a5.1,5.1,0,0,1,4.16-2,5,5,0,0,1,4.17,2,6.54,6.54,0,0,1,.84,3.89v9h-2.52V157a4.23,4.23,0,0,0-.67-2.66,2.85,2.85,0,0,0-2.38-1,3.15,3.15,0,0,0-2.55,1.12,6.11,6.11,0,0,0-1,3.92v7.59h-2.52Z"
    transform="translate(-0.38 -0.32)"/><path
    class="d"
    d="M513,151.38h2.52v1.68a5.1,5.1,0,0,1,4.16-2,5,5,0,0,1,4.17,2,6.54,6.54,0,0,1,.84,3.89v9h-2.52V157a4.23,4.23,0,0,0-.67-2.66,2.85,2.85,0,0,0-2.38-1,3.15,3.15,0,0,0-2.55,1.12,6.11,6.11,0,0,0-1,3.92v7.59H513Z"
    transform="translate(-0.38 -0.32)"/><path
    class="d"
    d="M540.16,153.69V165.9h-2.52V153.69h-1.4v-2.31h1.4v-5.47a6.28,6.28,0,0,1,.84-3.81c.67-1,2.07-2.14,4.8-2.14,1.22,0,3.57.21,4.79,2.14a6.84,6.84,0,0,1,.84,3.81v.6h-2.52v-.6a4.33,4.33,0,0,0-.49-2.27,3.64,3.64,0,0,0-5.25,0,4,4,0,0,0-.49,2.27v5.47h3.57v2.31Zm8.75-2.31V165.9h-2.52V151.38Z"
    transform="translate(-0.38 -0.32)"/><path
    class="d"
    d="M553.67,151.38h2.52v1.68a5.12,5.12,0,0,1,4.17-2,4.93,4.93,0,0,1,4.16,2,6.47,6.47,0,0,1,.84,3.89v9h-2.52V157a4.29,4.29,0,0,0-.66-2.66,2.85,2.85,0,0,0-2.38-1,3.17,3.17,0,0,0-2.56,1.12,6.11,6.11,0,0,0-1,3.92v7.59h-2.52Z"
    transform="translate(-0.38 -0.32)"/><path
    class="d"
    d="M581.25,140.38h2.52V165.9h-2.52v-2a6.11,6.11,0,0,1-5,2.45c-3.67,0-7.07-2.59-7.07-7.7s3.36-7.6,7.07-7.6a6,6,0,0,1,5,2.42Zm-9.45,18.24c0,3.12,1.75,5.46,4.76,5.46s4.83-2.55,4.83-5.42c0-3.75-2.59-5.39-4.83-5.39C574.08,153.27,571.8,155.09,571.8,158.62Z"
    transform="translate(-0.38 -0.32)"/><path
    class="d"
    d="M601.41,162.19a8.79,8.79,0,0,1-1.78,2.35,7.06,7.06,0,0,1-4.84,1.78c-3.5,0-7.17-2.2-7.17-7.59,0-4.34,2.66-7.71,7-7.71a6.49,6.49,0,0,1,5.49,2.67,9.73,9.73,0,0,1,1.37,5.46H590.21a4.65,4.65,0,0,0,4.62,4.93,4.43,4.43,0,0,0,3-1.05,5.75,5.75,0,0,0,1.5-2Zm-2.48-5.14a4.35,4.35,0,0,0-4.27-3.78,4.42,4.42,0,0,0-4.28,3.78Z"
    transform="translate(-0.38 -0.32)"/><path
    class="d"
    d="M605.36,151.38h2.52v1.68a5.12,5.12,0,0,1,4.17-2,5,5,0,0,1,4.17,2,6.54,6.54,0,0,1,.84,3.89v9h-2.52V157a4.23,4.23,0,0,0-.67-2.66,2.85,2.85,0,0,0-2.38-1,3.18,3.18,0,0,0-2.56,1.12,6.17,6.17,0,0,0-1,3.92v7.59h-2.52Z"
    transform="translate(-0.38 -0.32)"/><path class="d" d="M623.42,162.75a1.75,1.75,0,1,1-1.75,1.75A1.78,1.78,0,0,1,623.42,162.75Z" transform="translate(-0.38 -0.32)"/></svg>
