<svg width="40em" height="100%" viewBox="-50 0 726.13 181.09">
  <defs>
    <style>
      .cls-1,
      .cls-3 {
        fill: none;
      }
      .cls-2 {
        clip-path: url("#clip-path");
      }
      .cls-3 {
        stroke: #1d1d1b;
        stroke-miterlimit: 10;
        stroke-width: 4px;
      }
      .cls-4,
      .cls-5,
      .cls-6 {
        fill: #fff;
      }
      .cls-5 {
        font-size: 117px;
        stroke: #fff;
        stroke-width: 0.75px;
        font-family: AGaramondPro-Regular, Adobe Garamond Pro;
      }
      .cls-6 {
        font-size: 34.5px;
        font-family: FuturaPT-Book, Futura PT;
      }
    </style>
    <clipPath id="clip-path" transform="translate(-0.38 6.51)"><polyline class="cls-1" points="601.04 -152.08 601.04 282.69 -41.04 282.69 -41.04 -152.08"/></clipPath>
  </defs>
  <title>scholarium_text</title>
  <g class="cls-2"><path class="cls-3" d="M.38,219" transform="translate(-0.38 6.51)"/><path class="cls-3" d="M599.84,219" transform="translate(-0.38 6.51)"/><path class="cls-3" d="M599.84-111.89" transform="translate(-0.38 6.51)"/><path
    class="cls-4"
    d="M24.49,81.21c.19-.95,0-.95-.76-.76a30.48,30.48,0,0,1-4.79.38C6.5,80.83.38,69.36.38,58.84c0-18,11.87-35.95,30.42-47.42C42.85,3.77,54.91.32,67.54.32c20.09,0,47.64,13,47.64,50.49,0,23.9-17,47.62-36.93,58.71A43.13,43.13,0,0,1,57,115.06c-22,0-32.52-15.68-32.52-31.93Zm.57-61.38A42.08,42.08,0,0,0,10.72,52.15C10.72,73.57,20.66,78,23.54,78c.76,0,1.14,0,1.33-1.53a41.39,41.39,0,0,1,3.64-13.19c3.63-7.84,8.8-13,14.92-17.4,5.93-4.4,11.86-6.12,13.78-6.12,5.35,0,7.65,4.59,7.65,8,0,6.31-5.74,12-8.42,14-1.34.95-1.34,1.53,0,1.53a50.92,50.92,0,0,1,13,.76c1.53.19,1.92,0,2.3-1.53a78.84,78.84,0,0,1,3.63-10.71,9.54,9.54,0,0,1,3.06-4.39,13.53,13.53,0,0,1,5.17-3.06c1.15-.39,2.1.19,1.15,2.29C83.42,49.28,80.93,58.84,80,62.85c-.38,1.73-.38,2.11.77,2.3a43.51,43.51,0,0,0,5.16.19c4,0,6.7-.57,8.23-1.72,1.53-1,2.29.38,1.15,1.72-1.73,1.92-6.13,5.36-15.12,5.36-1.34,0-1.72.19-1.91,1.34-.38,1.91-.76,6.5-1,9.75-.19,3.06.2,4.4,1.15,4.4a6.06,6.06,0,0,0,1.92-.38c1-.39,1.34.57.57,1.34a23.71,23.71,0,0,1-8.42,6.11c-1.91.76-4.59.19-4.4-6.11a74,74,0,0,1,1.53-14.54c.38-1.53.19-1.91-1-2.1a88.57,88.57,0,0,0-17.6-1.35c-6.89,0-12.44,2.3-14.16,3.83a3.38,3.38,0,0,0-1.54,2.87c-.57,19.31,13,30.79,31,30,3.63,0,14-1.14,22.19-8.6,10.91-10.13,15.69-26.58,15.69-42.07,0-24.48-16.64-47.43-46.11-47.43-14.54,0-25.44,5.16-33.1,12m17,31.74c-2.3,3.06-4.78,8-5.93,16.45-.19,1,.19,1.34,1.53.76,9.18-3.44,16.46-7.26,16.46-17.21a4.62,4.62,0,0,0-5-4.59c-2.3,0-4.78,1.34-7.08,4.59"
    transform="translate(-0.38 6.51)"/></g>
  <text class="cls-5" transform="translate(126.99 97.49)">scholarium</text>
  <text class="cls-6" transform="translate(1.62 172.41)">
    <tspan>Realität erkennen, Werte schaffen, Sinn finden.</tspan>
  </text>
</svg>
